<?xml version="1.0" encoding="UTF-8"?>
<svg xmlns="http://www.w3.org/2000/svg" xmlns:xlink="http://www.w3.org/1999/xlink" width="24px" height="24px" viewBox="0 0 24 24" version="1.1">
<g id="surface1">
<path style=" stroke:none;fill-rule:nonzero;fill:rgb(53.333333%,88.627451%,87.058824%);fill-opacity:1;" d="M 18.230469 6.066406 L 17.859375 5.691406 L 19.167969 4.386719 C 19.320312 4.234375 19.371094 4.011719 19.300781 3.808594 C 19.234375 3.605469 19.058594 3.460938 18.84375 3.433594 L 14.90625 2.902344 C 14.730469 2.878906 14.554688 2.9375 14.429688 3.058594 C 14.308594 3.183594 14.25 3.359375 14.273438 3.53125 L 14.800781 7.472656 C 14.832031 7.683594 14.976562 7.863281 15.179688 7.929688 C 15.382812 8 15.605469 7.949219 15.757812 7.796875 L 17.066406 6.488281 L 17.4375 6.859375 C 20 9.425781 20.417969 13.4375 18.441406 16.476562 C 16.460938 19.519531 12.625 20.761719 9.242188 19.457031 C 5.855469 18.15625 3.84375 14.660156 4.414062 11.078125 C 4.984375 7.496094 7.980469 4.800781 11.605469 4.617188 C 11.914062 4.597656 12.15625 4.335938 12.136719 4.023438 C 12.121094 3.714844 11.855469 3.472656 11.546875 3.492188 C 7.390625 3.703125 3.949219 6.796875 3.292969 10.90625 C 2.636719 15.015625 4.949219 19.027344 8.832031 20.519531 C 12.71875 22.015625 17.117188 20.585938 19.386719 17.097656 C 21.65625 13.605469 21.175781 9.003906 18.230469 6.0625 Z M 16.40625 5.558594 L 15.765625 6.195312 L 15.484375 4.113281 C 16.375 4.453125 17.046875 4.917969 16.40625 5.558594 Z M 16.40625 5.558594 "/>
</g>
</svg>
